<svg xmlns="http://www.w3.org/2000/svg" xmlns:xlink="http://www.w3.org/1999/xlink" contentStyleType="text/css" height="580px" preserveAspectRatio="none" style="width:371px;height:580px;background:#FEFEFE;" version="1.1" viewBox="0 0 371 580" width="371px" zoomAndPan="magnify"><title>Ingestion Pipeline</title><defs/><g><rect fill="#FEFEFE" height="580" style="stroke:none;stroke-width:1.0;" width="371" x="0" y="0"/><text fill="#000000" font-family="Courier" font-size="22" font-weight="bold" lengthAdjust="spacing" textLength="237.6008" x="65.1996" y="38.5181">Ingestion&#160;Pipeline</text><ellipse cx="79" cy="65.9641" fill="#FFFFFF" rx="10" ry="10" style="stroke:#000000;stroke-width:1.0;"/><rect fill="#EBF5FB" height="47.24" rx="12.5" ry="12.5" style="stroke:#2E86C1;stroke-width:1.0;" width="116" x="21" y="95.9641"/><text fill="#000000" font-family="Courier" font-size="10" lengthAdjust="spacing" textLength="96" x="31" y="116.6541">Place&#160;.md&#160;/&#160;.txt</text><text fill="#000000" font-family="Courier" font-size="10" lengthAdjust="spacing" textLength="84" x="31" y="130.2741">in&#160;data/input/</text><rect fill="#EBF5FB" height="33.62" rx="12.5" ry="12.5" style="stroke:#2E86C1;stroke-width:1.0;" width="134" x="12" y="163.2041"/><text fill="#000000" font-family="Courier" font-size="10" lengthAdjust="spacing" textLength="114" x="22" y="183.8941">python&#160;ingestion.py</text><path d="M160,221.8241 L160,229.6341 L140,233.6341 L160,237.6341 L160,245.4441 A0,0 0 0 0 160,245.4441 L265,245.4441 A0,0 0 0 0 265,245.4441 L265,231.8241 L255,221.8241 L160,221.8241 A0,0 0 0 0 160,221.8241 " fill="#FFFFFF" style="stroke:#000000;stroke-width:1.0;"/><path d="M255,221.8241 L255,231.8241 L265,231.8241 L255,221.8241 " fill="#FFFFFF" style="stroke:#000000;stroke-width:1.0;"/><text fill="#000000" font-family="Courier" font-size="10" lengthAdjust="spacing" textLength="84" x="166" y="237.5141">recursive&#160;glob</text><rect fill="#EBF5FB" height="33.62" rx="12.5" ry="12.5" style="stroke:#2E86C1;stroke-width:1.0;" width="122" x="18" y="216.8241"/><text fill="#000000" font-family="Courier" font-size="10" lengthAdjust="spacing" textLength="102" x="28" y="237.5141">load_text_files()</text><path d="M169,268.6341 L169,283.254 L149,287.254 L169,291.254 L169,305.874 A0,0 0 0 0 169,305.874 L364,305.874 A0,0 0 0 0 364,305.874 L364,278.6341 L354,268.6341 L169,268.6341 A0,0 0 0 0 169,268.6341 " fill="#FFFFFF" style="stroke:#000000;stroke-width:1.0;"/><path d="M354,268.6341 L354,278.6341 L364,278.6341 L354,268.6341 " fill="#FFFFFF" style="stroke:#000000;stroke-width:1.0;"/><text fill="#000000" font-family="Courier" font-size="10" lengthAdjust="spacing" textLength="90" x="175" y="284.324">Unstructured.io</text><text fill="#000000" font-family="Courier" font-size="10" lengthAdjust="spacing" textLength="174" x="175" y="297.944">partition_md&#160;/&#160;partition_text</text><rect fill="#EBF5FB" height="33.62" rx="12.5" ry="12.5" style="stroke:#2E86C1;stroke-width:1.0;" width="140" x="9" y="270.4441"/><text fill="#000000" font-family="Courier" font-size="10" lengthAdjust="spacing" textLength="120" x="19" y="291.134">partition_document()</text><path d="M157,317.254 L157,338.684 L137,342.684 L157,346.684 L157,368.114 A0,0 0 0 0 157,368.114 L256,368.114 A0,0 0 0 0 256,368.114 L256,327.254 L246,317.254 L157,317.254 A0,0 0 0 0 157,317.254 " fill="#FFFFFF" style="stroke:#000000;stroke-width:1.0;"/><path d="M246,317.254 L246,327.254 L256,327.254 L246,317.254 " fill="#FFFFFF" style="stroke:#000000;stroke-width:1.0;"/><text fill="#000000" font-family="Courier" font-size="10" lengthAdjust="spacing" textLength="48" x="163" y="332.944">max=2000</text><text fill="#000000" font-family="Courier" font-size="10" lengthAdjust="spacing" textLength="54" x="163" y="346.564">soft=1000</text><text fill="#000000" font-family="Courier" font-size="10" lengthAdjust="spacing" textLength="78" x="163" y="360.184">min=350&#160;chars</text><rect fill="#EBF5FB" height="33.62" rx="12.5" ry="12.5" style="stroke:#2E86C1;stroke-width:1.0;" width="116" x="21" y="325.874"/><text fill="#000000" font-family="Courier" font-size="10" lengthAdjust="spacing" textLength="96" x="31" y="346.564">chunk_by_title()</text><path d="M166,386.304 L166,400.924 L146,404.924 L166,408.924 L166,423.544 A0,0 0 0 0 166,423.544 L307,423.544 A0,0 0 0 0 307,423.544 L307,396.304 L297,386.304 L166,386.304 A0,0 0 0 0 166,386.304 " fill="#FFFFFF" style="stroke:#000000;stroke-width:1.0;"/><path d="M297,386.304 L297,396.304 L307,396.304 L297,386.304 " fill="#FFFFFF" style="stroke:#000000;stroke-width:1.0;"/><text fill="#000000" font-family="Courier" font-size="10" lengthAdjust="spacing" textLength="120" x="172" y="401.994">LlamaIndex&#160;TextNodes</text><text fill="#000000" font-family="Courier" font-size="10" lengthAdjust="spacing" textLength="60" x="172" y="415.614">+&#160;metadata</text><rect fill="#EBF5FB" height="33.62" rx="12.5" ry="12.5" style="stroke:#2E86C1;stroke-width:1.0;" width="134" x="12" y="388.114"/><text fill="#000000" font-family="Courier" font-size="10" lengthAdjust="spacing" textLength="114" x="22" y="408.804">elements_to_nodes()</text><path d="M172,448.544 L172,456.354 L152,460.354 L172,464.354 L172,472.164 A0,0 0 0 0 172,472.164 L301,472.164 A0,0 0 0 0 301,472.164 L301,458.544 L291,448.544 L172,448.544 A0,0 0 0 0 172,448.544 " fill="#FFFFFF" style="stroke:#000000;stroke-width:1.0;"/><path d="M291,448.544 L291,458.544 L301,458.544 L291,448.544 " fill="#FFFFFF" style="stroke:#000000;stroke-width:1.0;"/><text fill="#000000" font-family="Courier" font-size="10" lengthAdjust="spacing" textLength="108" x="178" y="464.234">qna_docs&#160;+&#160;orphans</text><rect fill="#EBF5FB" height="33.62" rx="12.5" ry="12.5" style="stroke:#2E86C1;stroke-width:1.0;" width="146" x="6" y="443.544"/><text fill="#000000" font-family="Courier" font-size="10" lengthAdjust="spacing" textLength="126" x="16" y="464.234">delete&#160;old&#160;collection</text><path d="M163,495.354 L163,509.974 L143,513.974 L163,517.974 L163,532.594 A0,0 0 0 0 163,532.594 L286,532.594 A0,0 0 0 0 286,532.594 L286,505.354 L276,495.354 L163,495.354 A0,0 0 0 0 163,495.354 " fill="#FFFFFF" style="stroke:#000000;stroke-width:1.0;"/><path d="M276,495.354 L276,505.354 L286,505.354 L276,495.354 " fill="#FFFFFF" style="stroke:#000000;stroke-width:1.0;"/><text fill="#000000" font-family="Courier" font-size="10" lengthAdjust="spacing" textLength="72" x="169" y="511.044">Gemini&#160;embed</text><text fill="#000000" font-family="Courier" font-size="10" lengthAdjust="spacing" textLength="102" x="169" y="524.664">store&#160;in&#160;ChromaDB</text><rect fill="#EBF5FB" height="33.62" rx="12.5" ry="12.5" style="stroke:#2E86C1;stroke-width:1.0;" width="128" x="15" y="497.164"/><text fill="#000000" font-family="Courier" font-size="10" lengthAdjust="spacing" textLength="108" x="25" y="517.854">VectorStoreIndex()</text><ellipse cx="79" cy="563.594" fill="none" rx="11" ry="11" style="stroke:#000000;stroke-width:1.0;"/><ellipse cx="79" cy="563.594" fill="#FFFFFF" rx="6" ry="6" style="stroke:#000000;stroke-width:1.0;"/><line style="stroke:#2E86C1;stroke-width:1.0;" x1="79" x2="79" y1="75.9641" y2="95.9641"/><polygon fill="#2E86C1" points="75,85.9641,79,95.9641,83,85.9641,79,89.9641" style="stroke:#2E86C1;stroke-width:1.0;"/><line style="stroke:#2E86C1;stroke-width:1.0;" x1="79" x2="79" y1="143.2041" y2="163.2041"/><polygon fill="#2E86C1" points="75,153.2041,79,163.2041,83,153.2041,79,157.2041" style="stroke:#2E86C1;stroke-width:1.0;"/><line style="stroke:#2E86C1;stroke-width:1.0;" x1="79" x2="79" y1="196.8241" y2="216.8241"/><polygon fill="#2E86C1" points="75,206.8241,79,216.8241,83,206.8241,79,210.8241" style="stroke:#2E86C1;stroke-width:1.0;"/><line style="stroke:#2E86C1;stroke-width:1.0;" x1="79" x2="79" y1="250.4441" y2="270.4441"/><polygon fill="#2E86C1" points="75,260.4441,79,270.4441,83,260.4441,79,264.4441" style="stroke:#2E86C1;stroke-width:1.0;"/><line style="stroke:#2E86C1;stroke-width:1.0;" x1="79" x2="79" y1="304.064" y2="325.874"/><polygon fill="#2E86C1" points="75,315.874,79,325.874,83,315.874,79,319.874" style="stroke:#2E86C1;stroke-width:1.0;"/><line style="stroke:#2E86C1;stroke-width:1.0;" x1="79" x2="79" y1="359.494" y2="388.114"/><polygon fill="#2E86C1" points="75,378.114,79,388.114,83,378.114,79,382.114" style="stroke:#2E86C1;stroke-width:1.0;"/><line style="stroke:#2E86C1;stroke-width:1.0;" x1="79" x2="79" y1="421.734" y2="443.544"/><polygon fill="#2E86C1" points="75,433.544,79,443.544,83,433.544,79,437.544" style="stroke:#2E86C1;stroke-width:1.0;"/><line style="stroke:#2E86C1;stroke-width:1.0;" x1="79" x2="79" y1="477.164" y2="497.164"/><polygon fill="#2E86C1" points="75,487.164,79,497.164,83,487.164,79,491.164" style="stroke:#2E86C1;stroke-width:1.0;"/><line style="stroke:#2E86C1;stroke-width:1.0;" x1="79" x2="79" y1="530.784" y2="552.594"/><polygon fill="#2E86C1" points="75,542.594,79,552.594,83,542.594,79,546.594" style="stroke:#2E86C1;stroke-width:1.0;"/><!--SRC=[RP51Qnin48Nl-okcvD8IiDSfAIN15pjs2PGGIDkJOHbBOw-mDBELHgdTNr_9jCHnmxAmMhttlJVIE-qf40mU7JTfvtZ0Y07MQ7RRA9djNBn4k5WkwdEYiBJ1x7Kfh0zO27F9qL5yM_7aVXDCsfDDDEgUdHvc4Yt5lo5NYy-VvfEtLETr5hFbzN9sgenHVht6DEhK4zppbf8wONXq0td7r3H9CMhJt3nwD0IZO64C8zthYXs3HSLnuMOTtnRDSD2-cDq_p6WurDzUq7PAU-qspbDw_-6sOL62wBQzta0aasDopmHRB-kAAOck-Zih9WTYFRTyvwGn6ysHxCZ9Ybyinu8lonfRaARFlElMX-uuw3aku7vwrRRjYfDiT3evVWR7qu_NBPWUOoe8ybIhf4wbOx7_p_7LOy1xjhI7RoNreMfMV0c15Ej15OOja68GRy68zsHgnzUKdunrx0IN877eaMlsZwAK-5HUEWQSHt-XqjO1XJNPCaJLbLk0UHybuDsitg8CpHy0]--></g></svg>